{
  "accessors": [
    {
      "bufferView": 1,
      "componentType": 5123,
      "type": "SCALAR",
      "count": 1242
    },
    {
      "bufferView": 2,
      "componentType": 5126,
      "type": "VEC3",
      "count": 828,
      "min": [4, 4, 0],
      "max": [16, 16, 16]
    },
    {
      "bufferView": 2,
      "componentType": 5126,
      "type": "VEC3",
      "byteOffset": 12,
      "count": 828
    },
    {
      "bufferView": 2,
      "componentType": 5126,
      "type": "VEC2",
      "byteOffset": 24,
      "count": 828
    },
    {
      "bufferView": 3,
      "componentType": 5123,
      "type": "SCALAR",
      "count": 948
    },
    {
      "bufferView": 4,
      "componentType": 5126,
      "type": "VEC3",
      "count": 632,
      "min": [0, 7, 0],
      "max": [7, 16, 16]
    },
    {
      "bufferView": 4,
      "componentType": 5126,
      "type": "VEC3",
      "byteOffset": 12,
      "count": 632
    },
    {
      "bufferView": 4,
      "componentType": 5126,
      "type": "VEC2",
      "byteOffset": 24,
      "count": 632
    },
    {
      "bufferView": 5,
      "componentType": 5123,
      "type": "SCALAR",
      "count": 1176
    },
    {
      "bufferView": 6,
      "componentType": 5126,
      "type": "VEC3",
      "count": 784,
      "min": [5, 0, 0],
      "max": [16, 9, 16]
    },
    {
      "bufferView": 6,
      "componentType": 5126,
      "type": "VEC3",
      "byteOffset": 12,
      "count": 784
    },
    {
      "bufferView": 6,
      "componentType": 5126,
      "type": "VEC2",
      "byteOffset": 24,
      "count": 784
    },
    {
      "bufferView": 7,
      "componentType": 5123,
      "type": "SCALAR",
      "count": 852
    },
    {
      "bufferView": 8,
      "componentType": 5126,
      "type": "VEC3",
      "count": 568,
      "min": [0, 0, 0],
      "max": [9, 8, 16]
    },
    {
      "bufferView": 8,
      "componentType": 5126,
      "type": "VEC3",
      "byteOffset": 12,
      "count": 568
    },
    {
      "bufferView": 8,
      "componentType": 5126,
      "type": "VEC2",
      "byteOffset": 24,
      "count": 568
    },
    {
      "bufferView": 9,
      "componentType": 5123,
      "type": "SCALAR",
      "count": 2040
    },
    {
      "bufferView": 10,
      "componentType": 5126,
      "type": "VEC3",
      "count": 1360,
      "min": [3, 3, 0],
      "max": [16, 16, 16]
    },
    {
      "bufferView": 10,
      "componentType": 5126,
      "type": "VEC3",
      "byteOffset": 12,
      "count": 1360
    },
    {
      "bufferView": 10,
      "componentType": 5126,
      "type": "VEC2",
      "byteOffset": 24,
      "count": 1360
    },
    {
      "bufferView": 11,
      "componentType": 5123,
      "type": "SCALAR",
      "count": 2004
    },
    {
      "bufferView": 12,
      "componentType": 5126,
      "type": "VEC3",
      "count": 1336,
      "min": [0, 3, 0],
      "max": [12, 16, 16]
    },
    {
      "bufferView": 12,
      "componentType": 5126,
      "type": "VEC3",
      "byteOffset": 12,
      "count": 1336
    },
    {
      "bufferView": 12,
      "componentType": 5126,
      "type": "VEC2",
      "byteOffset": 24,
      "count": 1336
    },
    {
      "bufferView": 13,
      "componentType": 5123,
      "type": "SCALAR",
      "count": 1590
    },
    {
      "bufferView": 14,
      "componentType": 5126,
      "type": "VEC3",
      "count": 1060,
      "min": [3, 0, 0],
      "max": [16, 12, 16]
    },
    {
      "bufferView": 14,
      "componentType": 5126,
      "type": "VEC3",
      "byteOffset": 12,
      "count": 1060
    },
    {
      "bufferView": 14,
      "componentType": 5126,
      "type": "VEC2",
      "byteOffset": 24,
      "count": 1060
    },
    {
      "bufferView": 15,
      "componentType": 5123,
      "type": "SCALAR",
      "count": 1740
    },
    {
      "bufferView": 16,
      "componentType": 5126,
      "type": "VEC3",
      "count": 1160,
      "min": [0, 0, 0],
      "max": [12, 12, 16]
    },
    {
      "bufferView": 16,
      "componentType": 5126,
      "type": "VEC3",
      "byteOffset": 12,
      "count": 1160
    },
    {
      "bufferView": 16,
      "componentType": 5126,
      "type": "VEC2",
      "byteOffset": 24,
      "count": 1160
    },
    {
      "bufferView": 17,
      "componentType": 5123,
      "type": "SCALAR",
      "count": 1656
    },
    {
      "bufferView": 18,
      "componentType": 5126,
      "type": "VEC3",
      "count": 1104,
      "min": [3, 3, 0],
      "max": [16, 16, 8]
    },
    {
      "bufferView": 18,
      "componentType": 5126,
      "type": "VEC3",
      "byteOffset": 12,
      "count": 1104
    },
    {
      "bufferView": 18,
      "componentType": 5126,
      "type": "VEC2",
      "byteOffset": 24,
      "count": 1104
    },
    {
      "bufferView": 19,
      "componentType": 5123,
      "type": "SCALAR",
      "count": 1464
    },
    {
      "bufferView": 20,
      "componentType": 5126,
      "type": "VEC3",
      "count": 976,
      "min": [0, 3, 0],
      "max": [12, 16, 8]
    },
    {
      "bufferView": 20,
      "componentType": 5126,
      "type": "VEC3",
      "byteOffset": 12,
      "count": 976
    },
    {
      "bufferView": 20,
      "componentType": 5126,
      "type": "VEC2",
      "byteOffset": 24,
      "count": 976
    },
    {
      "bufferView": 21,
      "componentType": 5123,
      "type": "SCALAR",
      "count": 1620
    },
    {
      "bufferView": 22,
      "componentType": 5126,
      "type": "VEC3",
      "count": 1080,
      "min": [3, 0, 0],
      "max": [16, 12, 8]
    },
    {
      "bufferView": 22,
      "componentType": 5126,
      "type": "VEC3",
      "byteOffset": 12,
      "count": 1080
    },
    {
      "bufferView": 22,
      "componentType": 5126,
      "type": "VEC2",
      "byteOffset": 24,
      "count": 1080
    },
    {
      "bufferView": 23,
      "componentType": 5123,
      "type": "SCALAR",
      "count": 1488
    },
    {
      "bufferView": 24,
      "componentType": 5126,
      "type": "VEC3",
      "count": 992,
      "min": [0, 0, 0],
      "max": [12, 12, 8]
    },
    {
      "bufferView": 24,
      "componentType": 5126,
      "type": "VEC3",
      "byteOffset": 12,
      "count": 992
    },
    {
      "bufferView": 24,
      "componentType": 5126,
      "type": "VEC2",
      "byteOffset": 24,
      "count": 992
    }
  ],
  "asset": {
    "generator": "goxel",
    "version": "2.0"
  },
  "bufferViews": [
    {
      "buffer": 0,
      "byteLength": 96
    },
    {
      "buffer": 2,
      "byteLength": 2484
    },
    {
      "buffer": 1,
      "byteLength": 26496,
      "byteStride": 32
    },
    {
      "buffer": 4,
      "byteLength": 1896
    },
    {
      "buffer": 3,
      "byteLength": 20224,
      "byteStride": 32
    },
    {
      "buffer": 6,
      "byteLength": 2352
    },
    {
      "buffer": 5,
      "byteLength": 25088,
      "byteStride": 32
    },
    {
      "buffer": 8,
      "byteLength": 1704
    },
    {
      "buffer": 7,
      "byteLength": 18176,
      "byteStride": 32
    },
    {
      "buffer": 10,
      "byteLength": 4080
    },
    {
      "buffer": 9,
      "byteLength": 43520,
      "byteStride": 32
    },
    {
      "buffer": 12,
      "byteLength": 4008
    },
    {
      "buffer": 11,
      "byteLength": 42752,
      "byteStride": 32
    },
    {
      "buffer": 14,
      "byteLength": 3180
    },
    {
      "buffer": 13,
      "byteLength": 33920,
      "byteStride": 32
    },
    {
      "buffer": 16,
      "byteLength": 3480
    },
    {
      "buffer": 15,
      "byteLength": 37120,
      "byteStride": 32
    },
    {
      "buffer": 18,
      "byteLength": 3312
    },
    {
      "buffer": 17,
      "byteLength": 35328,
      "byteStride": 32
    },
    {
      "buffer": 20,
      "byteLength": 2928
    },
    {
      "buffer": 19,
      "byteLength": 31232,
      "byteStride": 32
    },
    {
      "buffer": 22,
      "byteLength": 3240
    },
    {
      "buffer": 21,
      "byteLength": 34560,
      "byteStride": 32
    },
    {
      "buffer": 24,
      "byteLength": 2976
    },
    {
      "buffer": 23,
      "byteLength": 31744,
      "byteStride": 32
    }
  ],
  "buffers": [
    {
      "uri": "data:application/octet-stream;base64,",
      "byteLength": 96
    },
    {
      "uri": "data:application/octet-stream;base64,",
      "byteLength": 26496
    },
    {
      "uri": "data:application/octet-stream;base64,",
      "byteLength": 2484
    },
    {
      "uri": "data:application/octet-stream;base64,",
      "byteLength": 20224
    },
    {
      "uri": "data:application/octet-stream;base64,",
      "byteLength": 1896
    },
    {
      "uri": "data:application/octet-stream;base64,",
      "byteLength": 25088
    },
    {
      "uri": "data:application/octet-stream;base64,",
      "byteLength": 2352
    },
    {
      "uri": "data:application/octet-stream;base64,",
      "byteLength": 18176
    },
    {
      "uri": "data:application/octet-stream;base64,",
      "byteLength": 1704
    },
    {
      "uri": "data:application/octet-stream;base64,",
      "byteLength": 43520
    },
    {
      "uri": "data:application/octet-stream;base64,",
      "byteLength": 4080
    },
    {
      "uri": "data:application/octet-stream;base64,",
      "byteLength": 42752
    },
    {
      "uri": "data:application/octet-stream;base64,",
      "byteLength": 4008
    },
    {
      "uri": "data:application/octet-stream;base64,",
      "byteLength": 33920
    },
    {
      "uri": "data:application/octet-stream;base64,",
      "byteLength": 3180
    },
    {
      "uri": "data:application/octet-stream;base64,",
      "byteLength": 37120
    },
    {
      "uri": "data:application/octet-stream;base64,",
      "byteLength": 3480
    },
    {
      "uri": "data:application/octet-stream;base64,",
      "byteLength": 35328
    },
    {
      "uri": "data:application/octet-stream;base64,",
      "byteLength": 3312
    },
    {
      "uri": "data:application/octet-stream;base64,",
      "byteLength": 31232
    },
    {
      "uri": "data:application/octet-stream;base64,",
      "byteLength": 2928
    },
    {
      "uri": "data:application/octet-stream;base64,",
      "byteLength": 34560
    },
    {
      "uri": "data:application/octet-stream;base64,",
      "byteLength": 3240
    },
    {
      "uri": "data:application/octet-stream;base64,",
      "byteLength": 31744
    },
    {
      "uri": "data:application/octet-stream;base64,",
      "byteLength": 2976
    }
  ],
  "images": [
    {
      "bufferView": 0,
      "mimeType": "image/png"
    }
  ],
  "meshes": [
    {
      "primitives": [
        {
          "indices": 0,
          "material": 0,
          "attributes": {
            "POSITION": 1,
            "NORMAL": 2,
            "TEXCOORD_0": 3
          }
        }
      ]
    },
    {
      "primitives": [
        {
          "indices": 4,
          "material": 0,
          "attributes": {
            "POSITION": 5,
            "NORMAL": 6,
            "TEXCOORD_0": 7
          }
        }
      ]
    },
    {
      "primitives": [
        {
          "indices": 8,
          "material": 0,
          "attributes": {
            "POSITION": 9,
            "NORMAL": 10,
            "TEXCOORD_0": 11
          }
        }
      ]
    },
    {
      "primitives": [
        {
          "indices": 12,
          "material": 0,
          "attributes": {
            "POSITION": 13,
            "NORMAL": 14,
            "TEXCOORD_0": 15
          }
        }
      ]
    },
    {
      "primitives": [
        {
          "indices": 16,
          "material": 0,
          "attributes": {
            "POSITION": 17,
            "NORMAL": 18,
            "TEXCOORD_0": 19
          }
        }
      ]
    },
    {
      "primitives": [
        {
          "indices": 20,
          "material": 0,
          "attributes": {
            "POSITION": 21,
            "NORMAL": 22,
            "TEXCOORD_0": 23
          }
        }
      ]
    },
    {
      "primitives": [
        {
          "indices": 24,
          "material": 0,
          "attributes": {
            "POSITION": 25,
            "NORMAL": 26,
            "TEXCOORD_0": 27
          }
        }
      ]
    },
    {
      "primitives": [
        {
          "indices": 28,
          "material": 0,
          "attributes": {
            "POSITION": 29,
            "NORMAL": 30,
            "TEXCOORD_0": 31
          }
        }
      ]
    },
    {
      "primitives": [
        {
          "indices": 32,
          "material": 0,
          "attributes": {
            "POSITION": 33,
            "NORMAL": 34,
            "TEXCOORD_0": 35
          }
        }
      ]
    },
    {
      "primitives": [
        {
          "indices": 36,
          "material": 0,
          "attributes": {
            "POSITION": 37,
            "NORMAL": 38,
            "TEXCOORD_0": 39
          }
        }
      ]
    },
    {
      "primitives": [
        {
          "indices": 40,
          "material": 0,
          "attributes": {
            "POSITION": 41,
            "NORMAL": 42,
            "TEXCOORD_0": 43
          }
        }
      ]
    },
    {
      "primitives": [
        {
          "indices": 44,
          "material": 0,
          "attributes": {
            "POSITION": 45,
            "NORMAL": 46,
            "TEXCOORD_0": 47
          }
        }
      ]
    }
  ],
  "materials": [
    {
      "name": "Material.1",
      "pbrMetallicRoughness": {
        "baseColorTexture": {
          "index": 0
        },
        "metallicFactor": 0.200000003,
        "roughnessFactor": 0.5
      }
    }
  ],
  "nodes": [
    {
      "children": [13],
      "matrix": [1, 0, 0, 0, 0, 0, -1, 0, 0, 1, 0, 0, 0, 0, 0, 1]
    },
    {
      "mesh": 0,
      "translation": [-16, -16, 0]
    },
    {
      "mesh": 1,
      "translation": [0, -16, 0]
    },
    {
      "mesh": 2,
      "translation": [-16, 0, 0]
    },
    {
      "mesh": 3,
      "translation": [0, 0, 0]
    },
    {
      "mesh": 4,
      "translation": [-16, -16, 16]
    },
    {
      "mesh": 5,
      "translation": [0, -16, 16]
    },
    {
      "mesh": 6,
      "translation": [-16, 0, 16]
    },
    {
      "mesh": 7,
      "translation": [0, 0, 16]
    },
    {
      "mesh": 8,
      "translation": [-16, -16, 32]
    },
    {
      "mesh": 9,
      "translation": [0, -16, 32]
    },
    {
      "mesh": 10,
      "translation": [-16, 0, 32]
    },
    {
      "mesh": 11,
      "translation": [0, 0, 32]
    },
    {
      "children": [1, 2, 3, 4, 5, 6, 7, 8, 9, 10, 11, 12]
    }
  ],
  "scenes": [
    {
      "nodes": [0]
    }
  ],
  "textures": [
    {
      "source": 0
    }
  ]
}
